<?xml version="1.0" standalone="no"?>
<!DOCTYPE svg PUBLIC "-//W3C//DTD SVG 20010904//EN"
 "http://www.w3.org/TR/2001/REC-SVG-20010904/DTD/svg10.dtd">
<svg version="1.0" xmlns="http://www.w3.org/2000/svg"
 width="200.000000pt" height="200.000000pt" viewBox="0 0 200.000000 200.000000"
 preserveAspectRatio="xMidYMid meet">
<metadata>
Created by potrace 1.16, written by Peter Selinger 2001-2019
</metadata>
<g transform="translate(0.000000,200.000000) scale(0.100000,-0.100000)"
fill="#000000" stroke="none">
<path d="M865 1546 c-76 -19 -138 -50 -185 -92 -42 -38 -100 -110 -100 -124 0
-4 17 -2 38 6 51 18 133 17 181 -2 35 -14 44 -14 92 0 67 20 146 20 204 0 42
-14 51 -14 93 0 52 18 128 21 168 6 37 -14 40 -7 15 34 -88 141 -316 219 -506
172z"/>
<path d="M661 1260 c-35 -8 -83 -39 -83 -53 1 -10 314 -378 319 -374 2 3 -56
250 -88 369 -5 21 -17 42 -27 47 -28 14 -85 19 -121 11z"/>
<path d="M941 1259 c-24 -5 -45 -10 -47 -12 -6 -5 89 -397 96 -397 5 0 101
375 100 392 0 4 -17 10 -37 13 -21 4 -45 8 -53 10 -8 1 -35 -1 -59 -6z"/>
<path d="M1225 1256 l-40 -12 -52 -199 c-29 -110 -53 -204 -53 -208 0 -5 72
77 161 181 89 105 161 194 161 199 -1 12 -62 40 -102 46 -19 3 -53 0 -75 -7z"/>
</g>
</svg>
