<?xml version="1.0" encoding="UTF-8" standalone="no"?><!-- Generator: Gravit.io --><svg xmlns="http://www.w3.org/2000/svg" xmlns:xlink="http://www.w3.org/1999/xlink" style="isolation:isolate" viewBox="0 0 800 800" width="800pt" height="800pt"><defs><clipPath id="_clipPath_Tyy6CQGW2vMhiSYlJ4z42ncslXiWd1UF"><rect width="800" height="800"/></clipPath></defs><g clip-path="url(#_clipPath_Tyy6CQGW2vMhiSYlJ4z42ncslXiWd1UF)"><path d=" M 103 228 L 103 572 L 697 572 L 697 228 L 103 228 Z  M 119.971 240.741 L 680.029 240.741 L 680.029 273.191 L 424.269 407.02 C 409.691 414.663 390.309 414.663 375.731 407.02 L 119.971 273.191 L 119.971 240.741 Z  M 128.262 293.073 L 239.272 351.127 C 240.46 353.687 243.642 355.407 247.257 355.407 L 247.393 355.407 L 265.459 364.861 C 263.31 367.727 264.414 371.35 268.01 373.23 C 271.605 375.11 276.514 374.63 279.35 372.123 L 296.415 381.016 C 292.199 381.721 289.357 384.686 289.806 387.911 C 290.255 391.135 293.853 393.595 298.171 393.63 C 300.624 393.621 302.953 392.819 304.559 391.427 C 306.165 390.036 306.893 388.191 306.555 386.367 L 366.057 417.461 C 373.639 421.432 382.36 424.007 391.514 424.978 L 391.514 425.481 C 391.514 428.985 395.333 431.852 400 431.852 C 404.667 431.852 408.486 428.985 408.486 425.481 C 408.486 425.309 408.486 425.163 408.452 424.985 C 417.618 424.018 426.351 421.443 433.943 417.468 L 493.445 386.361 C 493.104 388.186 493.831 390.032 495.437 391.425 C 497.044 392.818 499.374 393.622 501.829 393.63 C 505.01 394.151 508.308 393.259 510.316 391.335 C 512.325 389.411 512.69 386.794 511.256 384.6 C 509.821 382.405 506.841 381.02 503.585 381.035 L 520.658 372.136 C 522.279 373.627 524.698 374.525 527.286 374.525 C 530.339 374.513 533.149 373.274 534.648 371.278 C 536.148 369.281 536.107 366.835 534.541 364.867 L 552.616 355.407 L 552.743 355.407 C 556.358 355.407 559.574 353.687 560.728 351.127 L 671.738 293.073 C 672.604 295.985 676.049 298.074 680.029 298.074 L 680.029 323.556 C 675.361 323.556 671.543 326.422 671.543 329.926 C 671.543 333.43 675.361 336.296 680.029 336.296 L 680.029 361.778 C 675.361 361.778 671.543 364.644 671.543 368.148 C 671.543 371.652 675.361 374.519 680.029 374.519 L 680.029 400 C 675.361 400 671.543 402.867 671.543 406.37 C 671.543 409.874 675.361 412.741 680.029 412.741 L 680.029 438.222 C 675.361 438.222 671.543 441.089 671.543 444.593 C 671.543 448.096 675.361 450.963 680.029 450.963 L 680.029 476.444 C 675.361 476.444 671.543 479.311 671.543 482.815 C 671.543 486.319 675.361 489.185 680.029 489.185 L 680.029 514.667 C 675.361 514.667 671.543 517.533 671.543 521.037 C 671.543 524.541 675.361 527.407 680.029 527.407 L 680.029 552.889 C 675.361 552.889 671.543 555.756 671.543 559.259 L 637.6 559.259 C 637.6 555.756 633.781 552.889 629.114 552.889 C 624.447 552.889 620.629 555.756 620.629 559.259 L 586.686 559.259 C 586.686 555.756 582.867 552.889 578.2 552.889 C 573.533 552.889 569.714 555.756 569.714 559.259 L 535.771 559.259 C 535.771 555.756 531.953 552.889 527.286 552.889 C 522.619 552.889 518.8 555.756 518.8 559.259 L 484.857 559.259 C 484.857 555.756 481.039 552.889 476.371 552.889 C 471.704 552.889 467.886 555.756 467.886 559.259 L 433.943 559.259 C 433.943 555.756 430.124 552.889 425.457 552.889 C 420.79 552.889 416.971 555.756 416.971 559.259 L 383.029 559.259 C 383.029 555.756 379.21 552.889 374.543 552.889 C 369.876 552.889 366.057 555.756 366.057 559.259 L 332.114 559.259 C 332.114 555.756 328.296 552.889 323.629 552.889 C 318.961 552.889 315.143 555.756 315.143 559.259 L 281.2 559.259 C 281.2 555.756 277.381 552.889 272.714 552.889 C 268.047 552.889 264.229 555.756 264.229 559.259 L 230.286 559.259 C 230.286 555.756 226.467 552.889 221.8 552.889 C 217.133 552.889 213.314 555.756 213.314 559.259 L 179.371 559.259 C 179.371 555.756 175.553 552.889 170.886 552.889 C 166.219 552.889 162.4 555.756 162.4 559.259 L 128.457 559.259 C 128.457 555.756 124.639 552.889 119.971 552.889 L 119.971 527.407 C 124.639 527.407 128.457 524.541 128.457 521.037 C 128.457 517.533 124.639 514.667 119.971 514.667 L 119.971 489.185 C 124.639 489.185 128.457 486.319 128.457 482.815 C 128.457 479.311 124.639 476.444 119.971 476.444 L 119.971 450.963 C 124.639 450.963 128.457 448.096 128.457 444.593 C 128.457 441.089 124.639 438.222 119.971 438.222 L 119.971 412.741 C 124.639 412.741 128.457 409.874 128.457 406.37 C 128.457 402.867 124.639 400 119.971 400 L 119.971 374.519 C 124.639 374.519 128.457 371.652 128.457 368.148 C 128.457 364.644 124.639 361.778 119.971 361.778 L 119.971 336.296 C 124.639 336.296 128.457 333.43 128.457 329.926 C 128.457 326.422 124.639 323.556 119.971 323.556 L 119.971 298.074 C 123.951 298.074 127.396 295.985 128.262 293.073 Z  M 145.429 304.444 C 140.761 304.444 136.943 307.311 136.943 310.815 C 136.943 314.319 140.761 317.185 145.429 317.185 C 150.096 317.185 153.914 314.319 153.914 310.815 C 153.914 307.311 150.096 304.444 145.429 304.444 Z  M 654.571 304.444 C 649.904 304.444 646.086 307.311 646.086 310.815 C 646.086 314.319 649.904 317.185 654.571 317.185 C 659.239 317.185 663.057 314.319 663.057 310.815 C 663.057 307.311 659.239 304.444 654.571 304.444 Z  M 170.886 323.556 C 166.219 323.556 162.4 326.422 162.4 329.926 C 162.4 333.43 166.219 336.296 170.886 336.296 C 175.553 336.296 179.371 333.43 179.371 329.926 C 179.371 326.422 175.553 323.556 170.886 323.556 Z  M 629.114 323.556 C 624.447 323.556 620.629 326.422 620.629 329.926 C 620.629 333.43 624.447 336.296 629.114 336.296 C 633.781 336.296 637.6 333.43 637.6 329.926 C 637.6 326.422 633.781 323.556 629.114 323.556 Z  M 145.429 342.667 C 140.761 342.667 136.943 345.533 136.943 349.037 C 136.943 352.541 140.761 355.407 145.429 355.407 C 150.096 355.407 153.914 352.541 153.914 349.037 C 153.914 345.533 150.096 342.667 145.429 342.667 Z  M 196.343 342.667 C 191.676 342.667 187.857 345.533 187.857 349.037 C 187.857 352.541 191.676 355.407 196.343 355.407 C 201.01 355.407 204.829 352.541 204.829 349.037 C 204.829 345.533 201.01 342.667 196.343 342.667 Z  M 603.657 342.667 C 598.99 342.667 595.171 345.533 595.171 349.037 C 595.171 352.541 598.99 355.407 603.657 355.407 C 608.324 355.407 612.143 352.541 612.143 349.037 C 612.143 345.533 608.324 342.667 603.657 342.667 Z  M 654.571 342.667 C 649.904 342.667 646.086 345.533 646.086 349.037 C 646.086 352.541 649.904 355.407 654.571 355.407 C 659.239 355.407 663.057 352.541 663.057 349.037 C 663.057 345.533 659.239 342.667 654.571 342.667 Z  M 170.886 361.778 C 166.219 361.778 162.4 364.644 162.4 368.148 C 162.4 371.652 166.219 374.519 170.886 374.519 C 175.553 374.519 179.371 371.652 179.371 368.148 C 179.371 364.644 175.553 361.778 170.886 361.778 Z  M 221.8 361.778 C 217.133 361.778 213.314 364.644 213.314 368.148 C 213.314 371.652 217.133 374.519 221.8 374.519 C 226.467 374.519 230.286 371.652 230.286 368.148 C 230.286 364.644 226.467 361.778 221.8 361.778 Z  M 578.2 361.778 C 573.533 361.778 569.714 364.644 569.714 368.148 C 569.714 371.652 573.533 374.519 578.2 374.519 C 582.867 374.519 586.686 371.652 586.686 368.148 C 586.686 364.644 582.867 361.778 578.2 361.778 Z  M 629.114 361.778 C 624.447 361.778 620.629 364.644 620.629 368.148 C 620.629 371.652 624.447 374.519 629.114 374.519 C 633.781 374.519 637.6 371.652 637.6 368.148 C 637.6 364.644 633.781 361.778 629.114 361.778 Z  M 145.429 380.889 C 140.761 380.889 136.943 383.756 136.943 387.259 C 136.943 390.763 140.761 393.63 145.429 393.63 C 150.096 393.63 153.914 390.763 153.914 387.259 C 153.914 383.756 150.096 380.889 145.429 380.889 Z  M 196.343 380.889 C 191.676 380.889 187.857 383.756 187.857 387.259 C 187.857 390.763 191.676 393.63 196.343 393.63 C 201.01 393.63 204.829 390.763 204.829 387.259 C 204.829 383.756 201.01 380.889 196.343 380.889 Z  M 247.257 380.889 C 242.59 380.889 238.771 383.756 238.771 387.259 C 238.771 390.763 242.59 393.63 247.257 393.63 C 251.924 393.63 255.743 390.763 255.743 387.259 C 255.743 383.756 251.924 380.889 247.257 380.889 Z  M 552.743 380.889 C 548.076 380.889 544.257 383.756 544.257 387.259 C 544.257 390.763 548.076 393.63 552.743 393.63 C 557.41 393.63 561.229 390.763 561.229 387.259 C 561.229 383.756 557.41 380.889 552.743 380.889 Z  M 603.657 380.889 C 598.99 380.889 595.171 383.756 595.171 387.259 C 595.171 390.763 598.99 393.63 603.657 393.63 C 608.324 393.63 612.143 390.763 612.143 387.259 C 612.143 383.756 608.324 380.889 603.657 380.889 Z  M 654.571 380.889 C 649.904 380.889 646.086 383.756 646.086 387.259 C 646.086 390.763 649.904 393.63 654.571 393.63 C 659.239 393.63 663.057 390.763 663.057 387.259 C 663.057 383.756 659.239 380.889 654.571 380.889 Z  M 170.886 400 C 166.219 400 162.4 402.867 162.4 406.37 C 162.4 409.874 166.219 412.741 170.886 412.741 C 175.553 412.741 179.371 409.874 179.371 406.37 C 179.371 402.867 175.553 400 170.886 400 Z  M 221.8 400 C 217.133 400 213.314 402.867 213.314 406.37 C 213.314 409.874 217.133 412.741 221.8 412.741 C 226.467 412.741 230.286 409.874 230.286 406.37 C 230.286 402.867 226.467 400 221.8 400 Z  M 272.714 400 C 268.047 400 264.229 402.867 264.229 406.37 C 264.229 409.874 268.047 412.741 272.714 412.741 C 277.381 412.741 281.2 409.874 281.2 406.37 C 281.2 402.867 277.381 400 272.714 400 Z  M 323.629 400 C 318.961 400 315.143 402.867 315.143 406.37 C 315.143 409.874 318.961 412.741 323.629 412.741 C 328.296 412.741 332.114 409.874 332.114 406.37 C 332.114 402.867 328.296 400 323.629 400 Z  M 476.371 400 C 471.704 400 467.886 402.867 467.886 406.37 C 467.886 409.874 471.704 412.741 476.371 412.741 C 481.039 412.741 484.857 409.874 484.857 406.37 C 484.857 402.867 481.039 400 476.371 400 Z  M 527.286 400 C 522.619 400 518.8 402.867 518.8 406.37 C 518.8 409.874 522.619 412.741 527.286 412.741 C 531.953 412.741 535.771 409.874 535.771 406.37 C 535.771 402.867 531.953 400 527.286 400 Z  M 578.2 400 C 573.533 400 569.714 402.867 569.714 406.37 C 569.714 409.874 573.533 412.741 578.2 412.741 C 582.867 412.741 586.686 409.874 586.686 406.37 C 586.686 402.867 582.867 400 578.2 400 Z  M 629.114 400 C 624.447 400 620.629 402.867 620.629 406.37 C 620.629 409.874 624.447 412.741 629.114 412.741 C 633.781 412.741 637.6 409.874 637.6 406.37 C 637.6 402.867 633.781 400 629.114 400 Z  M 145.429 419.111 C 140.761 419.111 136.943 421.978 136.943 425.481 C 136.943 428.985 140.761 431.852 145.429 431.852 C 150.096 431.852 153.914 428.985 153.914 425.481 C 153.914 421.978 150.096 419.111 145.429 419.111 Z  M 196.343 419.111 C 191.676 419.111 187.857 421.978 187.857 425.481 C 187.857 428.985 191.676 431.852 196.343 431.852 C 201.01 431.852 204.829 428.985 204.829 425.481 C 204.829 421.978 201.01 419.111 196.343 419.111 Z  M 247.257 419.111 C 242.59 419.111 238.771 421.978 238.771 425.481 C 238.771 428.985 242.59 431.852 247.257 431.852 C 251.924 431.852 255.743 428.985 255.743 425.481 C 255.743 421.978 251.924 419.111 247.257 419.111 Z  M 298.171 419.111 C 293.504 419.111 289.686 421.978 289.686 425.481 C 289.686 428.985 293.504 431.852 298.171 431.852 C 302.839 431.852 306.657 428.985 306.657 425.481 C 306.657 421.978 302.839 419.111 298.171 419.111 Z  M 349.086 419.111 C 344.419 419.111 340.6 421.978 340.6 425.481 C 340.6 428.985 344.419 431.852 349.086 431.852 C 353.753 431.852 357.571 428.985 357.571 425.481 C 357.571 421.978 353.753 419.111 349.086 419.111 Z  M 450.914 419.111 C 446.247 419.111 442.429 421.978 442.429 425.481 C 442.429 428.985 446.247 431.852 450.914 431.852 C 455.581 431.852 459.4 428.985 459.4 425.481 C 459.4 421.978 455.581 419.111 450.914 419.111 Z  M 501.829 419.111 C 497.161 419.111 493.343 421.978 493.343 425.481 C 493.343 428.985 497.161 431.852 501.829 431.852 C 506.496 431.852 510.314 428.985 510.314 425.481 C 510.314 421.978 506.496 419.111 501.829 419.111 Z  M 552.743 419.111 C 548.076 419.111 544.257 421.978 544.257 425.481 C 544.257 428.985 548.076 431.852 552.743 431.852 C 557.41 431.852 561.229 428.985 561.229 425.481 C 561.229 421.978 557.41 419.111 552.743 419.111 Z  M 603.657 419.111 C 598.99 419.111 595.171 421.978 595.171 425.481 C 595.171 428.985 598.99 431.852 603.657 431.852 C 608.324 431.852 612.143 428.985 612.143 425.481 C 612.143 421.978 608.324 419.111 603.657 419.111 Z  M 654.571 419.111 C 649.904 419.111 646.086 421.978 646.086 425.481 C 646.086 428.985 649.904 431.852 654.571 431.852 C 659.239 431.852 663.057 428.985 663.057 425.481 C 663.057 421.978 659.239 419.111 654.571 419.111 Z  M 170.886 438.222 C 166.219 438.222 162.4 441.089 162.4 444.593 C 162.4 448.096 166.219 450.963 170.886 450.963 C 175.553 450.963 179.371 448.096 179.371 444.593 C 179.371 441.089 175.553 438.222 170.886 438.222 Z  M 221.8 438.222 C 217.133 438.222 213.314 441.089 213.314 444.593 C 213.314 448.096 217.133 450.963 221.8 450.963 C 226.467 450.963 230.286 448.096 230.286 444.593 C 230.286 441.089 226.467 438.222 221.8 438.222 Z  M 272.714 438.222 C 268.047 438.222 264.229 441.089 264.229 444.593 C 264.229 448.096 268.047 450.963 272.714 450.963 C 277.381 450.963 281.2 448.096 281.2 444.593 C 281.2 441.089 277.381 438.222 272.714 438.222 Z  M 323.629 438.222 C 318.961 438.222 315.143 441.089 315.143 444.593 C 315.143 448.096 318.961 450.963 323.629 450.963 C 328.296 450.963 332.114 448.096 332.114 444.593 C 332.114 441.089 328.296 438.222 323.629 438.222 Z  M 374.543 438.222 C 369.876 438.222 366.057 441.089 366.057 444.593 C 366.057 448.096 369.876 450.963 374.543 450.963 C 379.21 450.963 383.029 448.096 383.029 444.593 C 383.029 441.089 379.21 438.222 374.543 438.222 Z  M 425.457 438.222 C 420.79 438.222 416.971 441.089 416.971 444.593 C 416.971 448.096 420.79 450.963 425.457 450.963 C 430.124 450.963 433.943 448.096 433.943 444.593 C 433.943 441.089 430.124 438.222 425.457 438.222 Z  M 476.371 438.222 C 471.704 438.222 467.886 441.089 467.886 444.593 C 467.886 448.096 471.704 450.963 476.371 450.963 C 481.039 450.963 484.857 448.096 484.857 444.593 C 484.857 441.089 481.039 438.222 476.371 438.222 Z  M 527.286 438.222 C 522.619 438.222 518.8 441.089 518.8 444.593 C 518.8 448.096 522.619 450.963 527.286 450.963 C 531.953 450.963 535.771 448.096 535.771 444.593 C 535.771 441.089 531.953 438.222 527.286 438.222 Z  M 578.2 438.222 C 573.533 438.222 569.714 441.089 569.714 444.593 C 569.714 448.096 573.533 450.963 578.2 450.963 C 582.867 450.963 586.686 448.096 586.686 444.593 C 586.686 441.089 582.867 438.222 578.2 438.222 Z  M 629.114 438.222 C 624.447 438.222 620.629 441.089 620.629 444.593 C 620.629 448.096 624.447 450.963 629.114 450.963 C 633.781 450.963 637.6 448.096 637.6 444.593 C 637.6 441.089 633.781 438.222 629.114 438.222 Z  M 145.429 457.333 C 140.761 457.333 136.943 460.2 136.943 463.704 C 136.943 467.207 140.761 470.074 145.429 470.074 C 150.096 470.074 153.914 467.207 153.914 463.704 C 153.914 460.2 150.096 457.333 145.429 457.333 Z  M 196.343 457.333 C 191.676 457.333 187.857 460.2 187.857 463.704 C 187.857 467.207 191.676 470.074 196.343 470.074 C 201.01 470.074 204.829 467.207 204.829 463.704 C 204.829 460.2 201.01 457.333 196.343 457.333 Z  M 247.257 457.333 C 242.59 457.333 238.771 460.2 238.771 463.704 C 238.771 467.207 242.59 470.074 247.257 470.074 C 251.924 470.074 255.743 467.207 255.743 463.704 C 255.743 460.2 251.924 457.333 247.257 457.333 Z  M 298.171 457.333 C 293.504 457.333 289.686 460.2 289.686 463.704 C 289.686 467.207 293.504 470.074 298.171 470.074 C 302.839 470.074 306.657 467.207 306.657 463.704 C 306.657 460.2 302.839 457.333 298.171 457.333 Z  M 349.086 457.333 C 344.419 457.333 340.6 460.2 340.6 463.704 C 340.6 467.207 344.419 470.074 349.086 470.074 C 353.753 470.074 357.571 467.207 357.571 463.704 C 357.571 460.2 353.753 457.333 349.086 457.333 Z  M 400 457.333 C 395.333 457.333 391.514 460.2 391.514 463.704 C 391.514 467.207 395.333 470.074 400 470.074 C 404.667 470.074 408.486 467.207 408.486 463.704 C 408.486 460.2 404.667 457.333 400 457.333 Z  M 450.914 457.333 C 446.247 457.333 442.429 460.2 442.429 463.704 C 442.429 467.207 446.247 470.074 450.914 470.074 C 455.581 470.074 459.4 467.207 459.4 463.704 C 459.4 460.2 455.581 457.333 450.914 457.333 Z  M 501.829 457.333 C 497.161 457.333 493.343 460.2 493.343 463.704 C 493.343 467.207 497.161 470.074 501.829 470.074 C 506.496 470.074 510.314 467.207 510.314 463.704 C 510.314 460.2 506.496 457.333 501.829 457.333 Z  M 552.743 457.333 C 548.076 457.333 544.257 460.2 544.257 463.704 C 544.257 467.207 548.076 470.074 552.743 470.074 C 557.41 470.074 561.229 467.207 561.229 463.704 C 561.229 460.2 557.41 457.333 552.743 457.333 Z  M 603.657 457.333 C 598.99 457.333 595.171 460.2 595.171 463.704 C 595.171 467.207 598.99 470.074 603.657 470.074 C 608.324 470.074 612.143 467.207 612.143 463.704 C 612.143 460.2 608.324 457.333 603.657 457.333 Z  M 654.571 457.333 C 649.904 457.333 646.086 460.2 646.086 463.704 C 646.086 467.207 649.904 470.074 654.571 470.074 C 659.239 470.074 663.057 467.207 663.057 463.704 C 663.057 460.2 659.239 457.333 654.571 457.333 Z  M 170.886 476.444 C 166.219 476.444 162.4 479.311 162.4 482.815 C 162.4 486.319 166.219 489.185 170.886 489.185 C 175.553 489.185 179.371 486.319 179.371 482.815 C 179.371 479.311 175.553 476.444 170.886 476.444 Z  M 221.8 476.444 C 217.133 476.444 213.314 479.311 213.314 482.815 C 213.314 486.319 217.133 489.185 221.8 489.185 C 226.467 489.185 230.286 486.319 230.286 482.815 C 230.286 479.311 226.467 476.444 221.8 476.444 Z  M 272.714 476.444 C 268.047 476.444 264.229 479.311 264.229 482.815 C 264.229 486.319 268.047 489.185 272.714 489.185 C 277.381 489.185 281.2 486.319 281.2 482.815 C 281.2 479.311 277.381 476.444 272.714 476.444 Z  M 323.629 476.444 C 318.961 476.444 315.143 479.311 315.143 482.815 C 315.143 486.319 318.961 489.185 323.629 489.185 C 328.296 489.185 332.114 486.319 332.114 482.815 C 332.114 479.311 328.296 476.444 323.629 476.444 Z  M 374.543 476.444 C 369.876 476.444 366.057 479.311 366.057 482.815 C 366.057 486.319 369.876 489.185 374.543 489.185 C 379.21 489.185 383.029 486.319 383.029 482.815 C 383.029 479.311 379.21 476.444 374.543 476.444 Z  M 425.457 476.444 C 420.79 476.444 416.971 479.311 416.971 482.815 C 416.971 486.319 420.79 489.185 425.457 489.185 C 430.124 489.185 433.943 486.319 433.943 482.815 C 433.943 479.311 430.124 476.444 425.457 476.444 Z  M 476.371 476.444 C 471.704 476.444 467.886 479.311 467.886 482.815 C 467.886 486.319 471.704 489.185 476.371 489.185 C 481.039 489.185 484.857 486.319 484.857 482.815 C 484.857 479.311 481.039 476.444 476.371 476.444 Z  M 527.286 476.444 C 522.619 476.444 518.8 479.311 518.8 482.815 C 518.8 486.319 522.619 489.185 527.286 489.185 C 531.953 489.185 535.771 486.319 535.771 482.815 C 535.771 479.311 531.953 476.444 527.286 476.444 Z  M 578.2 476.444 C 573.533 476.444 569.714 479.311 569.714 482.815 C 569.714 486.319 573.533 489.185 578.2 489.185 C 582.867 489.185 586.686 486.319 586.686 482.815 C 586.686 479.311 582.867 476.444 578.2 476.444 Z  M 629.114 476.444 C 624.447 476.444 620.629 479.311 620.629 482.815 C 620.629 486.319 624.447 489.185 629.114 489.185 C 633.781 489.185 637.6 486.319 637.6 482.815 C 637.6 479.311 633.781 476.444 629.114 476.444 Z  M 145.429 495.556 C 140.761 495.556 136.943 498.422 136.943 501.926 C 136.943 505.43 140.761 508.296 145.429 508.296 C 150.096 508.296 153.914 505.43 153.914 501.926 C 153.914 498.422 150.096 495.556 145.429 495.556 Z  M 196.343 495.556 C 191.676 495.556 187.857 498.422 187.857 501.926 C 187.857 505.43 191.676 508.296 196.343 508.296 C 201.01 508.296 204.829 505.43 204.829 501.926 C 204.829 498.422 201.01 495.556 196.343 495.556 Z  M 247.257 495.556 C 242.59 495.556 238.771 498.422 238.771 501.926 C 238.771 505.43 242.59 508.296 247.257 508.296 C 251.924 508.296 255.743 505.43 255.743 501.926 C 255.743 498.422 251.924 495.556 247.257 495.556 Z  M 298.171 495.556 C 293.504 495.556 289.686 498.422 289.686 501.926 C 289.686 505.43 293.504 508.296 298.171 508.296 C 302.839 508.296 306.657 505.43 306.657 501.926 C 306.657 498.422 302.839 495.556 298.171 495.556 Z  M 349.086 495.556 C 344.419 495.556 340.6 498.422 340.6 501.926 C 340.6 505.43 344.419 508.296 349.086 508.296 C 353.753 508.296 357.571 505.43 357.571 501.926 C 357.571 498.422 353.753 495.556 349.086 495.556 Z  M 400 495.556 C 395.333 495.556 391.514 498.422 391.514 501.926 C 391.514 505.43 395.333 508.296 400 508.296 C 404.667 508.296 408.486 505.43 408.486 501.926 C 408.486 498.422 404.667 495.556 400 495.556 Z  M 450.914 495.556 C 446.247 495.556 442.429 498.422 442.429 501.926 C 442.429 505.43 446.247 508.296 450.914 508.296 C 455.581 508.296 459.4 505.43 459.4 501.926 C 459.4 498.422 455.581 495.556 450.914 495.556 Z  M 501.829 495.556 C 497.161 495.556 493.343 498.422 493.343 501.926 C 493.343 505.43 497.161 508.296 501.829 508.296 C 506.496 508.296 510.314 505.43 510.314 501.926 C 510.314 498.422 506.496 495.556 501.829 495.556 Z  M 552.743 495.556 C 548.076 495.556 544.257 498.422 544.257 501.926 C 544.257 505.43 548.076 508.296 552.743 508.296 C 557.41 508.296 561.229 505.43 561.229 501.926 C 561.229 498.422 557.41 495.556 552.743 495.556 Z  M 603.657 495.556 C 598.99 495.556 595.171 498.422 595.171 501.926 C 595.171 505.43 598.99 508.296 603.657 508.296 C 608.324 508.296 612.143 505.43 612.143 501.926 C 612.143 498.422 608.324 495.556 603.657 495.556 Z  M 654.571 495.556 C 649.904 495.556 646.086 498.422 646.086 501.926 C 646.086 505.43 649.904 508.296 654.571 508.296 C 659.239 508.296 663.057 505.43 663.057 501.926 C 663.057 498.422 659.239 495.556 654.571 495.556 Z  M 170.886 514.667 C 166.219 514.667 162.4 517.533 162.4 521.037 C 162.4 524.541 166.219 527.407 170.886 527.407 C 175.553 527.407 179.371 524.541 179.371 521.037 C 179.371 517.533 175.553 514.667 170.886 514.667 Z  M 221.8 514.667 C 217.133 514.667 213.314 517.533 213.314 521.037 C 213.314 524.541 217.133 527.407 221.8 527.407 C 226.467 527.407 230.286 524.541 230.286 521.037 C 230.286 517.533 226.467 514.667 221.8 514.667 Z  M 272.714 514.667 C 268.047 514.667 264.229 517.533 264.229 521.037 C 264.229 524.541 268.047 527.407 272.714 527.407 C 277.381 527.407 281.2 524.541 281.2 521.037 C 281.2 517.533 277.381 514.667 272.714 514.667 Z  M 323.629 514.667 C 318.961 514.667 315.143 517.533 315.143 521.037 C 315.143 524.541 318.961 527.407 323.629 527.407 C 328.296 527.407 332.114 524.541 332.114 521.037 C 332.114 517.533 328.296 514.667 323.629 514.667 Z  M 374.543 514.667 C 369.876 514.667 366.057 517.533 366.057 521.037 C 366.057 524.541 369.876 527.407 374.543 527.407 C 379.21 527.407 383.029 524.541 383.029 521.037 C 383.029 517.533 379.21 514.667 374.543 514.667 Z  M 425.457 514.667 C 420.79 514.667 416.971 517.533 416.971 521.037 C 416.971 524.541 420.79 527.407 425.457 527.407 C 430.124 527.407 433.943 524.541 433.943 521.037 C 433.943 517.533 430.124 514.667 425.457 514.667 Z  M 476.371 514.667 C 471.704 514.667 467.886 517.533 467.886 521.037 C 467.886 524.541 471.704 527.407 476.371 527.407 C 481.039 527.407 484.857 524.541 484.857 521.037 C 484.857 517.533 481.039 514.667 476.371 514.667 Z  M 527.286 514.667 C 522.619 514.667 518.8 517.533 518.8 521.037 C 518.8 524.541 522.619 527.407 527.286 527.407 C 531.953 527.407 535.771 524.541 535.771 521.037 C 535.771 517.533 531.953 514.667 527.286 514.667 Z  M 578.2 514.667 C 573.533 514.667 569.714 517.533 569.714 521.037 C 569.714 524.541 573.533 527.407 578.2 527.407 C 582.867 527.407 586.686 524.541 586.686 521.037 C 586.686 517.533 582.867 514.667 578.2 514.667 Z  M 629.114 514.667 C 624.447 514.667 620.629 517.533 620.629 521.037 C 620.629 524.541 624.447 527.407 629.114 527.407 C 633.781 527.407 637.6 524.541 637.6 521.037 C 637.6 517.533 633.781 514.667 629.114 514.667 Z  M 145.429 533.778 C 140.761 533.778 136.943 536.644 136.943 540.148 C 136.943 543.652 140.761 546.519 145.429 546.519 C 150.096 546.519 153.914 543.652 153.914 540.148 C 153.914 536.644 150.096 533.778 145.429 533.778 Z  M 196.343 533.778 C 191.676 533.778 187.857 536.644 187.857 540.148 C 187.857 543.652 191.676 546.519 196.343 546.519 C 201.01 546.519 204.829 543.652 204.829 540.148 C 204.829 536.644 201.01 533.778 196.343 533.778 Z  M 247.257 533.778 C 242.59 533.778 238.771 536.644 238.771 540.148 C 238.771 543.652 242.59 546.519 247.257 546.519 C 251.924 546.519 255.743 543.652 255.743 540.148 C 255.743 536.644 251.924 533.778 247.257 533.778 Z  M 298.171 533.778 C 293.504 533.778 289.686 536.644 289.686 540.148 C 289.686 543.652 293.504 546.519 298.171 546.519 C 302.839 546.519 306.657 543.652 306.657 540.148 C 306.657 536.644 302.839 533.778 298.171 533.778 Z  M 349.086 533.778 C 344.419 533.778 340.6 536.644 340.6 540.148 C 340.6 543.652 344.419 546.519 349.086 546.519 C 353.753 546.519 357.571 543.652 357.571 540.148 C 357.571 536.644 353.753 533.778 349.086 533.778 Z  M 400 533.778 C 395.333 533.778 391.514 536.644 391.514 540.148 C 391.514 543.652 395.333 546.519 400 546.519 C 404.667 546.519 408.486 543.652 408.486 540.148 C 408.486 536.644 404.667 533.778 400 533.778 Z  M 450.914 533.778 C 446.247 533.778 442.429 536.644 442.429 540.148 C 442.429 543.652 446.247 546.519 450.914 546.519 C 455.581 546.519 459.4 543.652 459.4 540.148 C 459.4 536.644 455.581 533.778 450.914 533.778 Z  M 501.829 533.778 C 497.161 533.778 493.343 536.644 493.343 540.148 C 493.343 543.652 497.161 546.519 501.829 546.519 C 506.496 546.519 510.314 543.652 510.314 540.148 C 510.314 536.644 506.496 533.778 501.829 533.778 Z  M 552.743 533.778 C 548.076 533.778 544.257 536.644 544.257 540.148 C 544.257 543.652 548.076 546.519 552.743 546.519 C 557.41 546.519 561.229 543.652 561.229 540.148 C 561.229 536.644 557.41 533.778 552.743 533.778 Z  M 603.657 533.778 C 598.99 533.778 595.171 536.644 595.171 540.148 C 595.171 543.652 598.99 546.519 603.657 546.519 C 608.324 546.519 612.143 543.652 612.143 540.148 C 612.143 536.644 608.324 533.778 603.657 533.778 Z  M 654.571 533.778 C 649.904 533.778 646.086 536.644 646.086 540.148 C 646.086 543.652 649.904 546.519 654.571 546.519 C 659.239 546.519 663.057 543.652 663.057 540.148 C 663.057 536.644 659.239 533.778 654.571 533.778 Z " fill="rgb(0,0,0)"/></g></svg>